<svg version="1.1" id="Layer_1" xmlns="http://www.w3.org/2000/svg" xmlns:xlink="http://www.w3.org/1999/xlink" x="0px" y="0px"
	 width="100%" viewBox="0 0 2537 394" enable-background="new 0 0 2537 394" xml:space="preserve">
<path fill="#FFFFFF" opacity="1.000000" stroke="none" 
	d="
M1.000000,394.000000 
	C1.000000,263.631744 1.000000,133.263504 1.223073,2.344843 
	C1.719883,1.591755 1.904501,1.326947 2.000000,1.000000 
	C847.272034,1.000000 1692.544067,1.000000 2537.908203,1.000000 
	C2537.908203,132.262436 2537.908203,263.524963 2537.908203,395.000000 
	C1692.965088,395.000000 847.930176,395.000000 2.341738,394.778534 
	C1.594199,394.274170 1.331461,394.088470 1.000000,394.000000 
M607.187683,270.121246 
	C607.187683,270.121246 607.249939,270.247894 607.729431,269.909027 
	C607.998657,268.997986 608.267822,268.086914 608.899231,266.581573 
	C608.958862,266.123901 609.018494,265.666199 609.788147,264.751648 
	C611.559143,264.541473 613.329590,264.154388 615.101318,264.148376 
	C633.710693,264.085144 652.320374,264.082825 671.312744,264.736908 
	C673.185486,272.841248 675.058228,280.945587 676.853149,289.678162 
	C677.110779,290.219116 677.368347,290.760071 677.695312,291.303040 
	C677.695312,291.303040 677.764160,291.295074 678.379822,291.910431 
	C691.739441,291.952057 705.099487,292.037842 718.457947,291.935150 
	C719.341492,291.928345 720.213989,290.485962 721.135681,288.902374 
	C720.999756,287.912384 720.923279,286.909973 720.719360,285.934174 
	C710.036133,234.814148 699.348816,183.694962 688.642944,132.579666 
	C686.782166,123.695580 684.837952,114.828979 682.901794,105.812302 
	C669.667053,105.812302 657.014832,105.836395 644.362732,105.805328 
	C632.393372,105.775948 624.540833,110.995323 619.881592,122.442566 
	C606.344910,155.700699 592.183167,188.704056 578.343445,221.839432 
	C569.826294,242.231232 561.449829,262.681763 552.531860,283.622711 
	C551.837524,285.473602 551.143250,287.324524 550.203552,289.364899 
	C550.203552,289.364899 550.163574,289.672333 549.815369,290.247070 
	C550.505615,290.846741 551.192383,291.965088 551.886658,291.969757 
	C566.821899,292.070892 581.758728,292.113525 596.692383,291.929108 
	C597.954468,291.913483 599.195801,290.216400 600.396057,289.138000 
	C600.396057,289.138000 600.373779,289.306732 600.872925,288.820923 
	C601.582581,286.556396 602.292175,284.291840 603.237793,281.788666 
	C603.237793,281.788666 603.185547,281.457062 603.697632,280.999054 
	C603.823914,280.333740 603.950195,279.668427 604.277954,278.832642 
	C604.277954,278.832642 604.208435,278.578033 604.749634,278.056763 
	C605.247070,276.407104 605.744446,274.757446 606.142029,273.093201 
	C606.142029,273.093201 606.180115,273.186646 606.699585,272.753174 
	C606.909302,271.877930 607.119019,271.002686 607.187683,270.121246 
M222.310471,110.955177 
	C222.310471,110.955177 222.383606,110.533119 222.058640,110.038788 
	C221.363541,109.701927 220.668457,109.365074 220.000000,109.000000 
	C220.000000,109.000000 219.973648,109.028450 219.513412,108.465904 
	C215.158539,107.590240 210.818237,106.055351 206.446136,105.958672 
	C191.468536,105.627495 176.479782,105.789413 161.495270,105.785896 
	C151.006104,105.783432 140.514816,105.721657 130.030258,105.950500 
	C128.629211,105.981087 127.262108,107.565872 125.879280,108.430916 
	C126.927185,109.594887 127.975090,110.758850 129.720032,112.252487 
	C143.538025,116.867416 157.432480,121.269119 171.142044,126.186348 
	C178.097534,128.681076 182.256653,133.863953 184.135864,141.358353 
	C191.236145,169.674759 198.687164,197.903473 206.058624,226.151505 
	C210.663528,243.797852 215.361038,261.420013 219.959106,279.843994 
	C220.924011,283.113190 221.888916,286.382416 222.739746,289.812958 
	C222.739746,289.812958 222.843857,289.980896 222.915024,290.862732 
	C224.047424,291.254181 225.178131,291.980621 226.312500,291.986420 
	C241.233017,292.062775 256.154144,292.056244 271.074829,291.996124 
	C272.089355,291.992035 273.101562,291.393890 274.020813,291.041565 
	C274.020813,291.041565 274.077362,291.122620 274.590454,290.783173 
	C274.738831,290.200256 274.887207,289.617371 275.555847,288.563416 
	C289.681793,254.885986 303.844391,221.223877 317.919617,187.525253 
	C326.039185,168.085510 334.017639,148.586823 342.580475,128.651642 
	C343.401672,126.432304 344.222870,124.212959 345.242401,121.830460 
	C345.242401,121.830460 345.170380,121.583969 345.728241,121.109291 
	C346.187958,119.752930 346.647675,118.396568 347.021271,117.033257 
	C347.021271,117.033257 347.076141,117.100044 347.599274,116.643661 
	C348.415192,114.435547 349.231110,112.227432 349.992188,110.018791 
	C349.992188,110.018791 350.030273,110.058258 350.570343,109.575569 
	C350.922241,108.436760 351.274109,107.297958 351.740021,105.790161 
	C335.443451,105.790161 319.734528,105.748466 304.027130,105.883919 
	C302.979309,105.892944 301.943115,107.245804 300.979218,107.972389 
	C300.979218,107.972389 300.940643,107.904922 300.394623,108.336403 
	C299.900421,109.879112 299.406219,111.421822 298.382996,113.437958 
	C282.925812,152.529602 267.468628,191.621231 252.011444,230.712875 
	C244.704086,196.685562 238.389038,162.900192 231.999603,129.128906 
	C230.796432,122.769661 229.454285,116.393448 223.826630,111.403595 
	C223.334198,111.111977 222.841751,110.820366 222.310471,110.955177 
M2272.192139,122.340744 
	C2272.126465,148.595428 2272.053467,174.850098 2272.032715,201.104752 
	C2272.032227,201.809158 2272.594482,202.514008 2272.919434,204.081711 
	C2272.994629,206.076492 2272.786621,208.130508 2273.189453,210.056870 
	C2277.254395,229.498703 2286.843994,245.986420 2300.609863,260.081268 
	C2315.766357,275.599854 2333.614990,287.294281 2353.424561,295.973602 
	C2355.339600,296.812775 2358.321777,296.729492 2360.231445,295.837952 
	C2383.160400,285.133209 2404.002197,271.525391 2420.017578,251.481995 
	C2432.683350,235.630554 2440.852539,217.973267 2440.985840,197.303101 
	C2441.116943,176.981873 2441.044678,156.658997 2440.983398,136.337097 
	C2440.968018,131.227356 2442.392822,124.972786 2439.992188,121.327896 
	C2437.534424,117.596344 2431.304932,116.157455 2426.536133,114.170990 
	C2397.210205,101.954857 2366.660889,97.359802 2335.144043,101.127556 
	C2316.558105,103.349434 2298.591797,108.581268 2281.454346,116.258858 
	C2278.392090,117.630714 2275.766357,119.976318 2272.192139,122.340744 
M369.109619,122.558334 
	C357.362335,178.002182 345.615021,233.446045 333.388641,289.505737 
	C332.421753,292.295044 334.368469,292.053772 336.054291,292.054077 
	C350.037048,292.056793 364.021271,292.140961 378.000244,291.910187 
	C379.316559,291.888428 381.386597,290.090363 381.756805,288.745453 
	C383.073700,283.961395 383.806519,279.016602 385.013336,273.358948 
	C392.021820,240.752686 399.066803,208.154205 406.024048,175.537003 
	C409.760376,158.020157 413.345886,140.471100 417.406128,122.314865 
	C418.549622,117.017502 419.693146,111.720139 420.980011,105.758675 
	C409.693542,105.758675 398.951172,105.701988 388.209869,105.783417 
	C383.104919,105.822113 376.259949,104.200272 373.364655,106.822006 
	C370.163330,109.720833 370.579620,116.614716 369.109619,122.558334 
M1274.366211,125.069931 
	C1273.938599,125.064980 1273.511108,125.060028 1272.636353,124.521347 
	C1268.589722,122.218315 1264.563477,119.878433 1260.493164,117.617996 
	C1227.430054,99.256660 1186.883789,102.633919 1157.327393,126.194435 
	C1128.234863,149.385239 1115.475098,188.960571 1125.632812,224.497040 
	C1140.814331,277.609314 1197.338501,306.091217 1248.837158,286.228516 
	C1257.296997,282.965637 1265.062256,277.901794 1273.782959,273.980133 
	C1275.686035,274.979065 1277.687622,275.827362 1279.477173,276.999603 
	C1304.816406,293.597534 1332.127563,297.072906 1360.558472,287.512329 
	C1393.953125,276.282532 1414.605713,252.699509 1422.477051,218.410995 
	C1428.508057,192.140045 1423.076050,167.455261 1407.849487,145.718979 
	C1391.954102,123.027946 1369.466797,109.601898 1341.686279,106.404198 
	C1317.048706,103.568291 1294.510864,109.262665 1274.366211,125.069931 
M811.486877,192.878098 
	C811.486877,226.818909 811.486877,260.759735 811.486877,294.968353 
	C813.568176,294.968353 815.056274,294.968384 816.544373,294.968384 
	C887.026917,294.968079 957.509521,294.968689 1027.992065,294.960175 
	C1029.320679,294.960022 1030.649292,294.851593 1032.780762,294.668976 
	C1033.180908,292.984375 1033.926636,291.300476 1033.929932,289.615082 
	C1033.996948,255.949524 1033.981201,222.283813 1033.967285,188.618134 
	C1033.966797,187.170609 1033.824829,185.723145 1033.747803,184.256409 
	C959.553589,184.256409 885.681091,184.256409 811.355835,184.256409 
	C811.510071,187.080856 811.643921,189.532669 811.486877,192.878098 
M514.493103,141.666382 
	C527.481934,141.548325 539.737854,144.825241 552.034668,150.314560 
	C554.910706,136.868805 557.675171,123.944458 560.470398,110.876549 
	C559.089722,110.312317 558.210632,109.900536 557.297607,109.587646 
	C536.404358,102.427322 514.952698,100.611511 493.285919,104.348015 
	C472.620850,107.911789 454.959930,116.924286 442.661133,134.924408 
	C429.299622,154.479935 431.065002,180.533752 448.859833,196.097427 
	C458.244751,204.305618 469.711639,210.148682 480.313049,216.943359 
	C484.641022,219.717255 489.491180,221.760406 493.539734,224.870285 
	C504.842133,233.552307 503.271973,245.978149 490.328705,252.075348 
	C488.537689,252.919037 486.630920,253.575851 484.715881,254.087753 
	C472.628326,257.318787 460.515167,256.092194 448.644104,253.309372 
	C440.009949,251.285339 431.673065,247.993134 422.947876,245.183990 
	C422.692810,245.832672 422.289703,246.552719 422.124512,247.323761 
	C419.722137,258.538605 417.521301,269.800507 414.877045,280.957458 
	C414.008911,284.620514 415.137878,285.914917 418.425476,286.942871 
	C442.312683,294.411896 466.621674,297.044647 491.374695,292.825653 
	C510.175293,289.621185 527.424988,282.841583 539.457092,267.056885 
	C554.234070,247.671371 561.344727,213.420364 529.875916,192.230743 
	C519.971741,185.561722 509.211090,180.177536 499.048553,173.873062 
	C494.723877,171.190201 490.497101,168.065094 487.004578,164.399078 
	C482.874542,160.063919 482.858795,154.711014 487.174652,150.562576 
	C490.510956,147.355713 494.820312,144.620651 499.192596,143.182678 
	C503.649475,141.716888 508.711853,142.092010 514.493103,141.666382 
M1645.351440,204.499664 
	C1645.351440,221.927719 1645.351440,239.355774 1645.351440,256.583160 
	C1663.602417,256.583160 1681.224365,258.118042 1698.481812,256.262909 
	C1734.144653,252.429306 1753.410522,221.538651 1745.043701,186.095398 
	C1739.535156,162.760574 1720.036377,147.363586 1696.098877,146.079681 
	C1682.484131,145.349442 1668.810181,145.719498 1655.162842,145.605789 
	C1652.042358,145.579788 1648.921387,145.601959 1645.350952,145.601959 
	C1645.350952,165.304474 1645.350952,184.402054 1645.351440,204.499664 
M1855.670898,248.240875 
	C1847.852417,247.931152 1840.568970,245.717056 1834.031250,241.491364 
	C1816.964722,230.460037 1810.479126,211.935913 1813.565430,192.398773 
	C1815.407349,180.739319 1821.054565,170.757858 1830.653687,163.427475 
	C1847.503296,150.560638 1876.810547,149.207779 1893.745605,169.785538 
	C1895.976807,172.496582 1897.999878,173.217697 1900.697876,170.376022 
	C1902.931641,168.023483 1905.192871,166.531876 1901.832764,162.771179 
	C1876.955200,134.926651 1840.165527,142.013443 1821.911011,157.073761 
	C1807.732788,168.771164 1802.132935,184.596863 1802.178833,202.636185 
	C1802.239990,226.717072 1816.190796,246.724991 1838.477051,254.821182 
	C1862.188721,263.435150 1886.728638,257.468475 1902.156494,239.264832 
	C1902.920410,238.363525 1903.798584,236.846695 1903.542969,235.911972 
	C1902.139893,230.781693 1896.701904,229.596893 1893.146606,233.548676 
	C1883.365479,244.420181 1871.225586,249.400787 1855.670898,248.240875 
M1931.334595,142.108932 
	C1929.384033,142.108932 1927.433472,142.108932 1925.270752,142.108932 
	C1925.270752,180.698273 1925.270752,218.748505 1925.270752,256.857056 
	C1928.584839,256.857056 1931.598389,256.857056 1934.901489,256.857056 
	C1934.901489,242.156235 1934.776367,228.006012 1934.937012,213.859024 
	C1935.095703,199.881378 1945.429077,189.919815 1959.519287,189.828781 
	C1973.915039,189.735748 1982.722412,198.331741 1983.036133,213.102524 
	C1983.287231,224.926971 1983.241821,236.757736 1983.319824,248.585770 
	C1983.338013,251.352859 1983.322510,254.120163 1983.322510,257.024323 
	C1986.746948,257.024323 1989.620850,257.024323 1992.939331,257.024323 
	C1992.939331,246.093567 1992.978638,235.609512 1992.923706,225.125931 
	C1992.893188,219.297348 1992.912842,213.456329 1992.541382,207.644470 
	C1991.955688,198.480804 1988.132202,191.032272 1980.179565,185.979126 
	C1966.330566,177.179306 1948.172974,179.429977 1936.880859,191.372894 
	C1936.488647,191.787643 1935.982544,192.094772 1934.921997,192.931229 
	C1934.921997,190.496628 1934.921875,188.866470 1934.921875,187.236313 
	C1934.921509,173.574112 1934.932251,159.911880 1934.908203,146.249710 
	C1934.904785,144.358261 1935.533936,141.947418 1931.334595,142.108932 
M2044.071045,258.351166 
	C2057.312744,259.198669 2068.815674,255.522202 2078.376221,245.620926 
	C2076.332764,243.412857 2074.665039,241.610687 2072.846680,239.645798 
	C2060.914062,249.885315 2047.969360,253.631546 2033.520020,246.539108 
	C2024.186523,241.957733 2020.459351,233.445938 2018.792236,223.106110 
	C2039.837036,223.106110 2060.414795,223.106110 2080.841064,223.106110 
	C2083.689453,213.818451 2078.787842,196.406189 2067.753662,188.083572 
	C2055.660400,178.962036 2042.406250,178.302231 2029.201538,184.859512 
	C2013.806152,192.504700 2006.551636,210.065338 2010.099243,228.672577 
	C2013.293579,245.426941 2025.320557,256.158081 2044.071045,258.351166 
M2186.364502,142.091522 
	C2184.256348,142.091522 2182.148438,142.091522 2179.945312,142.091522 
	C2179.945312,180.728546 2179.945312,218.782089 2179.945312,256.898956 
	C2183.097900,256.898956 2185.831787,256.898956 2189.080811,256.898956 
	C2189.080811,245.296890 2189.080811,234.054443 2189.080811,222.932968 
	C2198.547119,221.009979 2200.141602,221.527267 2205.760742,227.699402 
	C2213.725830,236.448196 2221.863037,245.043854 2229.679688,253.922318 
	C2233.681396,258.467590 2238.267090,257.648621 2244.648682,256.886902 
	C2232.167236,243.186829 2220.582275,230.471100 2207.714355,216.346954 
	C2219.689209,204.893967 2231.374756,193.717407 2243.326660,182.286224 
	C2233.360352,180.914398 2233.346924,180.925903 2226.953613,187.322205 
	C2219.766846,194.512070 2212.204590,201.369934 2205.499268,208.982971 
	C2200.724609,214.403778 2195.407471,214.332367 2188.994629,213.237793 
	C2188.994629,211.226089 2188.994629,209.418701 2188.994629,207.611328 
	C2188.995117,187.445206 2189.035889,167.278839 2188.921387,147.113327 
	C2188.912109,145.445526 2187.847656,143.783722 2186.364502,142.091522 
M2117.428223,255.204803 
	C2134.070557,261.703491 2153.145752,257.922852 2161.433105,246.111740 
	C2159.768311,244.079361 2158.045654,241.976212 2156.533936,240.130463 
	C2138.002197,252.150482 2123.700439,251.985764 2112.881348,240.507217 
	C2103.223389,230.260483 2102.288818,212.986069 2110.702637,201.335922 
	C2114.786377,195.681610 2120.309570,192.216019 2126.970215,190.547623 
	C2138.100098,187.759781 2147.433838,191.881500 2155.922607,199.028458 
	C2158.101318,196.697647 2159.873291,194.802078 2161.589111,192.966568 
	C2152.260986,180.724319 2131.114746,176.727615 2116.128662,184.617935 
	C2102.698486,191.688995 2095.515625,203.158112 2095.156738,218.443604 
	C2094.768311,234.985397 2102.218750,247.090851 2117.428223,255.204803 
M992.539001,153.356094 
	C994.295715,153.356094 996.052429,153.356094 997.636841,153.356094 
	C997.893433,152.359558 998.095276,152.021561 998.037415,151.736282 
	C994.936584,136.462402 991.831238,121.189323 988.646973,105.932739 
	C988.468994,105.079887 987.797852,104.009338 987.058411,103.645500 
	C981.674133,100.996429 973.024292,104.463173 970.625122,110.170563 
	C965.681396,121.931152 960.775818,133.707794 955.860352,145.480270 
	C954.875000,147.840454 953.915955,150.211624 952.611511,153.389542 
	C955.417419,153.389542 957.382446,153.230331 959.312561,153.422195 
	C963.514343,153.839890 966.831116,153.207520 967.765869,148.202393 
	C967.937317,147.284348 969.426819,145.981262 970.355286,145.940750 
	C975.444092,145.718842 980.547668,145.834946 985.922668,145.834946 
	C985.668701,150.547043 985.829102,154.469528 992.539001,153.356094 
M898.238464,103.749954 
	C895.922058,103.659348 893.572205,103.784042 891.296631,103.430656 
	C887.294373,102.809120 885.319763,104.440170 884.051331,108.226135 
	C882.050842,114.196938 879.518494,119.990501 877.182129,125.847473 
	C875.812134,129.281723 874.385498,132.693390 872.478271,137.351120 
	C870.384766,127.221169 868.840576,118.535507 866.664307,110.011215 
	C866.066956,107.671768 863.729858,104.190834 861.929749,104.022079 
	C854.622986,103.337105 847.214478,103.737343 839.843506,103.737343 
	C842.032471,105.343971 844.278198,106.330925 846.626343,106.878929 
	C851.692505,108.061279 854.433167,110.879532 855.566589,116.184013 
	C857.681763,126.082901 860.504395,135.830246 863.015808,145.644958 
	C864.988525,153.354263 864.977234,153.350357 873.068787,153.317947 
	C875.872803,153.306717 878.371338,153.658844 879.839294,149.962677 
	C885.906311,134.687119 892.359985,119.565147 898.238464,103.749954 
M1615.944946,236.499786 
	C1615.944946,206.407883 1615.944946,176.315994 1615.944946,145.830109 
	C1612.458862,145.830109 1609.404419,145.830109 1606.147949,145.830109 
	C1606.147949,182.978546 1606.147949,219.826843 1606.147949,256.788696 
	C1609.498779,256.788696 1612.531372,256.788696 1615.944946,256.788696 
	C1615.944946,250.092911 1615.944946,243.796234 1615.944946,236.499786 
M946.784302,102.857368 
	C939.747009,102.050446 933.149902,103.186539 927.403015,107.561562 
	C920.095093,113.125076 919.803711,122.724373 926.930298,128.508438 
	C929.741760,130.790253 933.244507,132.208054 936.135193,134.409561 
	C937.677429,135.584091 939.732422,137.801193 939.481323,139.166229 
	C939.188416,140.759247 936.806458,142.717056 935.017822,143.117249 
	C932.050781,143.781082 928.804138,143.595490 925.731567,143.256805 
	C923.384766,142.998093 921.125000,141.949387 918.574036,141.175507 
	C917.964478,143.984146 917.185974,146.385742 917.032959,148.826584 
	C916.966370,149.888336 917.959229,151.741806 918.855042,152.026230 
	C927.724182,154.842651 936.622620,155.132721 944.950745,150.391739 
	C954.819946,144.773438 955.420776,132.789810 946.316833,126.103439 
	C944.049866,124.438461 941.280029,123.427567 939.124573,121.651077 
	C937.435303,120.258812 936.337524,118.148727 934.976990,116.357544 
	C937.159363,115.161201 939.282349,113.118393 941.537598,112.960091 
	C945.240356,112.700180 949.028931,113.662964 953.200012,114.160065 
	C953.863953,111.107910 954.516479,108.108391 955.252258,104.726112 
	C952.412048,104.059753 950.016479,103.497711 946.784302,102.857368 
M1520.032227,149.500000 
	C1520.032104,136.003830 1520.034058,122.507668 1520.028564,109.011505 
	C1520.028198,107.846672 1520.151489,106.640190 1519.884888,105.533180 
	C1519.732666,104.901627 1518.798584,103.915985 1518.407837,103.998283 
	C1517.612915,104.165695 1516.572510,104.811943 1516.317261,105.510834 
	C1515.937500,106.549911 1516.116943,107.805687 1516.116943,108.969254 
	C1516.111084,168.618866 1516.111206,228.268478 1516.113647,287.918091 
	C1516.113770,289.084045 1515.916870,290.321472 1516.246826,291.391479 
	C1516.475586,292.133453 1517.428589,293.091095 1518.101318,293.126434 
	C1518.703003,293.157990 1519.741455,292.151245 1519.915527,291.438660 
	C1520.223389,290.178406 1520.031006,288.793549 1520.031006,287.460846 
	C1520.032715,241.807236 1520.032471,196.153610 1520.032227,149.500000 
M907.182007,103.495789 
	C906.221191,104.796028 904.778564,105.966942 904.388428,107.420357 
	C903.141235,112.067459 902.273010,116.816933 901.278870,121.531197 
	C899.094299,131.891022 896.922119,142.253494 894.673828,152.953003 
	C899.106873,152.953003 902.989563,152.953003 907.110229,152.953003 
	C910.599121,136.548569 914.039978,120.369789 917.634094,103.470703 
	C913.931641,103.470703 910.983582,103.470703 907.182007,103.495789 
z"/>
<path fill="#F2F2F2" opacity="1.000000" stroke="none" 
	d="
M1.000000,394.500000 
	C1.331461,394.088470 1.594199,394.274170 1.894107,394.778534 
	C1.666667,395.000000 1.333333,395.000000 1.000000,394.500000 
z"/>
<path fill="#F2F2F2" opacity="1.000000" stroke="none" 
	d="
M1.500000,1.000000 
	C1.904501,1.326947 1.719883,1.591755 1.223073,1.897211 
	C1.000000,1.666667 1.000000,1.333333 1.500000,1.000000 
z"/>
<path fill="#1C2073" opacity="1.000000" stroke="none" 
	d="
M1031.977905,294.793701 
	C1030.649292,294.851593 1029.320679,294.960022 1027.992065,294.960175 
	C957.509521,294.968689 887.026917,294.968079 816.544373,294.968384 
	C815.056274,294.968384 813.568176,294.968353 811.486877,294.968353 
	C811.486877,260.759735 811.486877,226.818909 811.937988,192.255524 
	C812.764954,189.579880 813.140747,187.526779 813.553711,185.270493 
	C814.695007,185.171219 815.664551,185.013229 816.634033,185.013046 
	C886.787842,185.000687 956.941650,185.021423 1027.095459,184.954010 
	C1031.802368,184.949493 1033.071167,187.167877 1033.044556,191.449249 
	C1032.929077,209.945145 1033.126099,228.443390 1032.955322,246.938431 
	C1032.807983,262.891846 1032.317017,278.842072 1031.977905,294.793701 
M947.561584,236.530670 
	C947.564636,240.183899 947.396362,243.850067 947.670898,247.482788 
	C947.758057,248.636047 949.025330,249.700104 949.752625,250.804962 
	C950.552551,249.633972 951.797913,248.552475 952.054993,247.272461 
	C952.519531,244.959442 952.393616,242.527863 952.513245,240.165329 
	C957.188782,239.904190 958.570435,242.209305 959.264526,245.762421 
	C959.787659,248.440338 960.121582,252.169281 965.519714,249.914169 
	C964.134033,245.964935 962.793152,242.143311 961.380981,238.118637 
	C965.007202,234.003937 965.545471,228.042648 961.654907,226.678497 
	C957.768677,225.315857 953.245972,225.217422 949.106201,225.623535 
	C948.336304,225.699020 948.036743,230.788452 947.570190,233.572250 
	C947.461975,234.217880 947.559326,234.897980 947.561584,236.530670 
M922.773499,238.813950 
	C922.841553,239.641571 922.877625,240.473297 922.982849,241.296173 
	C923.778625,247.519073 926.932617,250.760864 932.355774,250.950531 
	C937.938721,251.145798 941.536316,248.422363 942.459412,242.171783 
	C943.156250,237.453476 943.022156,232.562500 942.718811,227.782593 
	C942.645752,226.631027 940.437439,225.614975 939.211121,224.536606 
	C938.781738,224.887497 938.352356,225.238403 937.922974,225.589294 
	C937.922974,230.707260 938.412598,235.895126 937.696655,240.910889 
	C937.383545,243.104874 934.605408,244.947021 932.946716,246.948975 
	C931.261353,245.016907 928.504028,243.276627 928.116821,241.112320 
	C927.342834,236.785736 928.018188,232.217316 927.737671,227.771271 
	C927.676392,226.800247 926.116638,225.923767 925.246948,225.003784 
	C924.468994,225.841095 923.103699,226.622101 923.017090,227.525681 
	C922.685303,230.986237 922.764526,234.486191 922.773499,238.813950 
M892.162842,250.455353 
	C892.661499,250.459198 893.249268,250.637131 893.642700,250.435608 
	C895.041565,249.719055 896.374268,248.873230 897.731995,248.076385 
	C896.384949,247.436752 895.090698,246.458008 893.678345,246.238266 
	C891.645203,245.921921 889.526062,246.157486 887.374756,246.157486 
	C887.374756,243.609390 887.374756,241.876617 887.374756,240.307968 
	C890.765015,239.728195 893.831848,239.203720 896.898743,238.679245 
	C896.883484,238.003265 896.868225,237.327286 896.852966,236.651306 
	C895.230286,236.240341 893.608215,235.484146 891.984802,235.481171 
	C886.445923,235.471024 886.114075,235.078278 888.013550,228.957245 
	C890.196960,228.957245 892.534729,229.171204 894.799744,228.858612 
	C895.794495,228.721329 896.641113,227.511093 897.554993,226.788071 
	C896.587219,226.138504 895.657776,225.011932 894.644409,224.930664 
	C891.840271,224.705734 888.992249,225.073502 886.178284,224.912979 
	C883.167053,224.741196 881.967712,225.852829 882.121826,228.922958 
	C882.329895,233.068954 882.155945,237.232513 882.264404,241.385437 
	C882.522339,251.259048 880.684265,250.474319 892.162842,250.455353 
M979.102783,224.997314 
	C975.663818,224.997314 972.224915,224.997314 968.235718,224.997314 
	C968.235718,233.056000 968.122070,240.510818 968.375366,247.953140 
	C968.408203,248.916046 970.259521,250.478485 971.405212,250.614868 
	C974.523865,250.986084 977.733521,250.930542 980.869080,250.637451 
	C981.949890,250.536423 982.918518,249.235352 983.938416,248.482483 
	C982.852112,247.800766 981.822388,246.677353 980.667725,246.529510 
	C978.279724,246.223770 975.825195,246.437347 973.428345,246.437347 
	C973.428345,243.621246 973.428345,241.568726 973.428345,239.324310 
	C976.713806,239.170502 979.646851,239.033188 982.825745,238.884369 
	C982.770752,237.777542 982.880981,236.364288 982.671082,236.315002 
	C979.583557,235.590271 976.453491,235.047043 973.088867,234.414734 
	C973.186340,232.656525 973.282166,230.928070 973.388611,229.006775 
	C975.930481,229.006775 977.949463,229.209335 979.900391,228.932495 
	C981.114502,228.760193 982.225708,227.862671 983.383118,227.290634 
	C982.251282,226.526459 981.119446,225.762268 979.102783,224.997314 
M869.108643,225.063431 
	C862.210632,227.783005 860.385498,232.748062 864.925049,236.790268 
	C866.376038,238.082245 868.491943,238.614380 869.993896,239.865891 
	C871.463928,241.090683 872.539124,242.789215 873.787659,244.279816 
	C871.788391,245.121887 869.836365,246.115158 867.775269,246.759354 
	C866.050659,247.298325 864.198486,247.429169 862.402832,247.740707 
	C864.269409,248.776489 866.041199,250.115402 868.036499,250.739822 
	C869.332703,251.145493 871.325134,251.007080 872.356201,250.239761 
	C874.705627,248.491394 877.902893,246.458862 878.389160,244.061768 
	C878.809875,241.987442 876.267212,238.995056 874.464905,236.897903 
	C873.257935,235.493393 870.896240,235.145737 869.361389,233.932709 
	C868.522766,233.269882 867.902039,231.750320 868.001282,230.694016 
	C868.063477,230.032410 869.598816,229.129562 870.557434,229.010040 
	C872.622375,228.752594 874.741638,228.930969 877.314697,228.930969 
	C876.771912,223.293427 872.748718,225.283249 869.108643,225.063431 
M913.599060,246.804932 
	C907.184326,245.365356 904.985840,243.058075 905.016174,237.797409 
	C905.051086,231.743042 906.795776,230.580566 920.609863,228.228119 
	C918.619873,226.709427 917.567871,225.252213 916.336304,225.080124 
	C911.029175,224.338516 905.826355,224.852036 902.470032,229.708618 
	C899.178284,234.471786 899.000244,239.743546 901.776489,244.811554 
	C904.494080,249.772766 909.273682,251.213791 914.526978,250.824280 
	C916.117371,250.706375 917.604492,249.196198 919.138916,248.323746 
	C917.550598,247.819885 915.962341,247.316025 913.599060,246.804932 
z"/>
<path fill="#E9011C" opacity="1.000000" stroke="none" 
	d="
M1273.148438,273.670288 
	C1265.062256,277.901794 1257.296997,282.965637 1248.837158,286.228516 
	C1197.338501,306.091217 1140.814331,277.609314 1125.632812,224.497040 
	C1115.475098,188.960571 1128.234863,149.385239 1157.327393,126.194435 
	C1186.883789,102.633919 1227.430054,99.256660 1260.493164,117.617996 
	C1264.563477,119.878433 1268.589722,122.218315 1272.786621,125.123871 
	C1272.372314,126.528404 1271.934937,127.472031 1271.224121,128.111450 
	C1257.398560,140.546738 1246.838745,155.096695 1241.779053,173.248581 
	C1234.383667,199.780869 1237.475708,224.987244 1252.626465,248.040787 
	C1258.500854,256.979523 1266.294678,264.656891 1273.149658,273.095093 
	C1273.085083,273.281281 1273.148438,273.670288 1273.148438,273.670288 
z"/>
<path fill="#F79F1A" opacity="1.000000" stroke="none" 
	d="
M1273.465698,273.825195 
	C1273.148438,273.670288 1273.085083,273.281281 1273.466553,273.068878 
	C1276.617310,270.014893 1279.339478,267.125214 1282.165649,264.341217 
	C1289.338867,257.275208 1295.192627,249.304062 1299.437134,240.131866 
	C1306.913330,223.975891 1310.790405,207.000504 1308.702271,189.317245 
	C1306.073608,167.054398 1296.962402,147.679138 1280.041504,132.360275 
	C1277.926514,130.445557 1276.660522,127.593185 1275.001099,125.175285 
	C1294.510864,109.262665 1317.048706,103.568291 1341.686279,106.404198 
	C1369.466797,109.601898 1391.954102,123.027946 1407.849487,145.718979 
	C1423.076050,167.455261 1428.508057,192.140045 1422.477051,218.410995 
	C1414.605713,252.699509 1393.953125,276.282532 1360.558472,287.512329 
	C1332.127563,297.072906 1304.816406,293.597534 1279.477173,276.999603 
	C1277.687622,275.827362 1275.686035,274.979065 1273.465698,273.825195 
z"/>
<path fill="#1635CA" opacity="1.000000" stroke="none" 
	d="
M604.208435,278.578033 
	C604.208435,278.578033 604.277954,278.832642 603.886780,279.121155 
	C603.392273,280.092102 603.288879,280.774597 603.185547,281.457062 
	C603.185547,281.457062 603.237793,281.788666 602.830444,282.106049 
	C601.739990,284.717865 601.056885,287.012299 600.373779,289.306732 
	C600.373779,289.306732 600.396057,289.138000 600.008911,289.246399 
	C597.608398,289.896057 595.600403,290.881256 593.580627,290.905823 
	C581.347473,291.054718 569.110901,291.049561 556.877197,290.927704 
	C554.635376,290.905334 552.401245,290.110565 550.163574,289.672333 
	C550.163574,289.672333 550.203552,289.364899 550.681885,289.092041 
	C551.776917,286.914795 552.393555,285.010376 553.010193,283.105957 
	C561.449829,262.681763 569.826294,242.231232 578.343445,221.839432 
	C592.183167,188.704056 606.344910,155.700699 619.881592,122.442566 
	C624.540833,110.995323 632.393372,105.775948 644.362732,105.805328 
	C657.014832,105.836395 669.667053,105.812302 682.901794,105.812302 
	C684.837952,114.828979 686.782166,123.695580 688.642944,132.579666 
	C699.348816,183.694962 710.036133,234.814148 720.719360,285.934174 
	C720.923279,286.909973 720.999756,287.912384 720.849731,289.654480 
	C718.605591,290.597412 716.649292,290.931610 714.689087,290.955719 
	C702.381287,291.107239 690.072571,291.189758 677.764160,291.295105 
	C677.764160,291.295074 677.695312,291.303040 677.769043,290.978821 
	C677.538818,290.119690 677.234924,289.584808 676.931030,289.049927 
	C675.058228,280.945587 673.185486,272.841248 670.860535,264.078125 
	C650.835693,263.281677 631.263000,263.115540 611.690308,263.100433 
	C610.820068,263.099762 609.948853,264.474457 609.078125,265.208496 
	C609.018494,265.666199 608.958862,266.123901 608.400269,266.920532 
	C607.684265,268.255646 607.467102,269.251770 607.249939,270.247894 
	C607.249939,270.247894 607.187683,270.121246 606.917358,270.261841 
	C606.491394,271.330475 606.335754,272.258575 606.180115,273.186646 
	C606.180115,273.186646 606.142029,273.093201 605.852173,273.261475 
	C605.110962,275.145844 604.659729,276.861938 604.208435,278.578033 
M628.930481,211.391861 
	C627.232971,216.110092 625.535400,220.828323 623.754700,225.777649 
	C637.396606,225.777649 650.159546,225.777649 663.408081,225.777649 
	C658.646729,203.038879 653.963257,180.672546 649.279846,158.306213 
	C648.919922,158.300812 648.559937,158.295410 648.200012,158.290024 
	C641.845947,175.739380 635.491882,193.188751 628.930481,211.391861 
z"/>
<path fill="#1735CA" opacity="1.000000" stroke="none" 
	d="
M222.843857,289.980896 
	C222.843857,289.980896 222.739746,289.812958 222.832123,289.290222 
	C221.955322,285.529327 220.986160,282.291199 220.016998,279.053040 
	C215.361038,261.420013 210.663528,243.797852 206.058624,226.151505 
	C198.687164,197.903473 191.236145,169.674759 184.135864,141.358353 
	C182.256653,133.863953 178.097534,128.681076 171.142044,126.186348 
	C157.432480,121.269119 143.538025,116.867416 129.321228,111.706787 
	C126.816635,106.857460 129.635452,106.984619 132.572388,106.989418 
	C153.164932,107.023094 173.760208,106.818481 194.348877,107.104042 
	C202.897736,107.222603 211.432480,108.356354 219.973648,109.028450 
	C219.973648,109.028450 220.000000,109.000000 220.049500,109.362122 
	C220.860519,109.993858 221.622070,110.263489 222.383606,110.533119 
	C222.383606,110.533119 222.310471,110.955177 222.332581,111.075958 
	C222.919907,111.444176 223.485107,111.691612 224.050308,111.939041 
	C229.454285,116.393448 230.796432,122.769661 231.999603,129.128906 
	C238.389038,162.900192 244.704086,196.685562 252.011444,230.712875 
	C267.468628,191.621231 282.925812,152.529602 298.952332,113.022797 
	C299.994629,111.040062 300.467621,109.472488 300.940643,107.904922 
	C300.940643,107.904922 300.979218,107.972389 301.340607,107.833511 
	C302.163910,107.518173 302.625061,107.189682 303.087891,107.187302 
	C317.792267,107.111443 332.497375,107.010605 347.200165,107.148979 
	C348.152557,107.157944 349.087311,109.044891 350.030273,110.058258 
	C350.030273,110.058258 349.992188,110.018791 349.652802,110.070564 
	C348.567657,112.448235 347.821899,114.774139 347.076141,117.100044 
	C347.076141,117.100044 347.021271,117.033257 346.749817,117.225098 
	C346.042358,118.805954 345.606354,120.194962 345.170380,121.583969 
	C345.170380,121.583969 345.242401,121.830460 344.850983,122.109497 
	C343.659576,124.630577 342.859589,126.872627 342.059601,129.114670 
	C334.017639,148.586823 326.039185,168.085510 317.919617,187.525253 
	C303.844391,221.223877 289.681793,254.885986 275.030273,288.960480 
	C274.362244,289.945892 274.219818,290.534271 274.077362,291.122620 
	C274.077362,291.122620 274.020813,291.041565 273.591492,291.019043 
	C260.339630,290.990479 247.516373,291.060791 234.695084,290.932892 
	C230.741898,290.893433 226.794113,290.313385 222.843857,289.980896 
z"/>
<path fill="#1735CA" opacity="1.000000" stroke="none" 
	d="
M514.001099,141.663757 
	C508.711853,142.092010 503.649475,141.716888 499.192596,143.182678 
	C494.820312,144.620651 490.510956,147.355713 487.174652,150.562576 
	C482.858795,154.711014 482.874542,160.063919 487.004578,164.399078 
	C490.497101,168.065094 494.723877,171.190201 499.048553,173.873062 
	C509.211090,180.177536 519.971741,185.561722 529.875916,192.230743 
	C561.344727,213.420364 554.234070,247.671371 539.457092,267.056885 
	C527.424988,282.841583 510.175293,289.621185 491.374695,292.825653 
	C466.621674,297.044647 442.312683,294.411896 418.425476,286.942871 
	C415.137878,285.914917 414.008911,284.620514 414.877045,280.957458 
	C417.521301,269.800507 419.722137,258.538605 422.124512,247.323761 
	C422.289703,246.552719 422.692810,245.832672 422.947876,245.183990 
	C431.673065,247.993134 440.009949,251.285339 448.644104,253.309372 
	C460.515167,256.092194 472.628326,257.318787 484.715881,254.087753 
	C486.630920,253.575851 488.537689,252.919037 490.328705,252.075348 
	C503.271973,245.978149 504.842133,233.552307 493.539734,224.870285 
	C489.491180,221.760406 484.641022,219.717255 480.313049,216.943359 
	C469.711639,210.148682 458.244751,204.305618 448.859833,196.097427 
	C431.065002,180.533752 429.299622,154.479935 442.661133,134.924408 
	C454.959930,116.924286 472.620850,107.911789 493.285919,104.348015 
	C514.952698,100.611511 536.404358,102.427322 557.297607,109.587646 
	C558.210632,109.900536 559.089722,110.312317 560.470398,110.876549 
	C557.675171,123.944458 554.910706,136.868805 552.034668,150.314560 
	C539.737854,144.825241 527.481934,141.548325 514.001099,141.663757 
z"/>
<path fill="#1635CB" opacity="1.000000" stroke="none" 
	d="
M333.867737,288.889893 
	C345.615021,233.446045 357.362335,178.002182 369.543945,121.992767 
	C370.652802,119.274864 371.205719,117.074547 372.031281,114.981781 
	C373.187164,112.051636 372.390106,107.252106 376.942688,107.131691 
	C389.732269,106.793411 402.536713,107.004395 415.335236,107.028893 
	C417.698334,107.033417 418.969727,107.671425 418.370422,110.652397 
	C417.561401,114.676353 417.424713,118.835480 416.999512,122.936592 
	C413.345886,140.471100 409.760376,158.020157 406.024048,175.537003 
	C399.066803,208.154205 392.021820,240.752686 384.586395,273.932373 
	C383.099213,278.599396 382.350769,282.813751 380.833984,286.730560 
	C380.174866,288.432648 377.939697,290.700439 376.413879,290.705322 
	C363.934540,290.745300 351.452545,290.350128 338.974640,289.976807 
	C337.263031,289.925598 335.569580,289.267181 333.867737,288.889893 
z"/>
<path fill="#FE6103" opacity="1.000000" stroke="none" 
	d="
M1274.683594,125.122604 
	C1276.660522,127.593185 1277.926514,130.445557 1280.041504,132.360275 
	C1296.962402,147.679138 1306.073608,167.054398 1308.702271,189.317245 
	C1310.790405,207.000504 1306.913330,223.975891 1299.437134,240.131866 
	C1295.192627,249.304062 1289.338867,257.275208 1282.165649,264.341217 
	C1279.339478,267.125214 1276.617310,270.014893 1273.531006,272.882690 
	C1266.294678,264.656891 1258.500854,256.979523 1252.626465,248.040787 
	C1237.475708,224.987244 1234.383667,199.780869 1241.779053,173.248581 
	C1246.838745,155.096695 1257.398560,140.546738 1271.224121,128.111450 
	C1271.934937,127.472031 1272.372314,126.528404 1273.010254,125.390732 
	C1273.511108,125.060028 1273.938599,125.064980 1274.683594,125.122604 
z"/>
<path fill="#103E62" opacity="1.000000" stroke="none" 
	d="
M2272.938965,121.872360 
	C2275.766357,119.976318 2278.392090,117.630714 2281.454346,116.258858 
	C2298.591797,108.581268 2316.558105,103.349434 2335.144043,101.127556 
	C2366.660889,97.359802 2397.210205,101.954857 2426.536133,114.170990 
	C2431.304932,116.157455 2437.534424,117.596344 2439.992188,121.327896 
	C2442.392822,124.972786 2440.968018,131.227356 2440.983398,136.337097 
	C2441.044678,156.658997 2441.116943,176.981873 2440.985840,197.303101 
	C2440.852539,217.973267 2432.683350,235.630554 2420.017578,251.481995 
	C2404.002197,271.525391 2383.160400,285.133209 2360.231445,295.837952 
	C2358.321777,296.729492 2355.339600,296.812775 2353.424561,295.973602 
	C2333.614990,287.294281 2315.766357,275.599854 2300.609863,260.081268 
	C2286.843994,245.986420 2277.254395,229.498703 2273.189453,210.056870 
	C2272.786621,208.130508 2272.994629,206.076492 2272.940430,203.169235 
	C2272.953857,175.461960 2272.946289,148.667160 2272.938965,121.872360 
M2282.063477,218.182983 
	C2284.425781,223.369766 2286.343506,228.818939 2289.224365,233.699631 
	C2304.557617,259.678284 2327.662842,276.634491 2354.543701,289.027588 
	C2355.761475,289.589111 2357.715576,289.504395 2358.955566,288.925598 
	C2378.660889,279.728149 2396.334473,267.838013 2411.117188,251.562347 
	C2425.707764,235.498367 2433.989746,216.873001 2434.802734,195.459641 
	C2435.629883,173.674271 2435.088867,151.832016 2434.833252,130.018326 
	C2434.808594,127.892998 2433.104736,124.759171 2431.294189,123.841148 
	C2411.926758,114.021515 2391.182373,108.445480 2369.623779,107.266029 
	C2356.510742,106.548630 2343.218506,107.895241 2330.081787,109.119492 
	C2313.604736,110.655052 2298.204834,116.310921 2283.108154,122.901085 
	C2279.790771,124.349281 2278.869141,126.173546 2278.891357,129.576736 
	C2279.036621,151.894348 2278.759277,174.217255 2279.146240,196.529266 
	C2279.266846,203.489197 2281.014893,210.420929 2282.063477,218.182983 
z"/>
<path fill="#6B6B6B" opacity="1.000000" stroke="none" 
	d="
M1645.351196,203.999649 
	C1645.350952,184.402054 1645.350952,165.304474 1645.350952,145.601959 
	C1648.921387,145.601959 1652.042358,145.579788 1655.162842,145.605789 
	C1668.810181,145.719498 1682.484131,145.349442 1696.098877,146.079681 
	C1720.036377,147.363586 1739.535156,162.760574 1745.043701,186.095398 
	C1753.410522,221.538651 1734.144653,252.429306 1698.481812,256.262909 
	C1681.224365,258.118042 1663.602417,256.583160 1645.351440,256.583160 
	C1645.351440,239.355774 1645.351440,221.927719 1645.351196,203.999649 
M1677.495605,155.048965 
	C1670.394409,155.048965 1663.293213,155.048965 1655.938965,155.048965 
	C1655.938965,186.052582 1655.938965,216.435638 1655.938965,247.084183 
	C1668.944458,247.084183 1681.595703,247.565750 1694.197021,246.978058 
	C1716.422363,245.941528 1732.847534,230.347610 1735.708130,208.398758 
	C1738.629639,185.981125 1729.433105,168.270538 1709.881836,159.207352 
	C1699.910156,154.584839 1689.149536,154.991913 1677.495605,155.048965 
z"/>
<path fill="#6A6A6A" opacity="1.000000" stroke="none" 
	d="
M1856.146973,248.282745 
	C1871.225586,249.400787 1883.365479,244.420181 1893.146606,233.548676 
	C1896.701904,229.596893 1902.139893,230.781693 1903.542969,235.911972 
	C1903.798584,236.846695 1902.920410,238.363525 1902.156494,239.264832 
	C1886.728638,257.468475 1862.188721,263.435150 1838.477051,254.821182 
	C1816.190796,246.724991 1802.239990,226.717072 1802.178833,202.636185 
	C1802.132935,184.596863 1807.732788,168.771164 1821.911011,157.073761 
	C1840.165527,142.013443 1876.955200,134.926651 1901.832764,162.771179 
	C1905.192871,166.531876 1902.931641,168.023483 1900.697876,170.376022 
	C1897.999878,173.217697 1895.976807,172.496582 1893.745605,169.785538 
	C1876.810547,149.207779 1847.503296,150.560638 1830.653687,163.427475 
	C1821.054565,170.757858 1815.407349,180.739319 1813.565430,192.398773 
	C1810.479126,211.935913 1816.964722,230.460037 1834.031250,241.491364 
	C1840.568970,245.717056 1847.852417,247.931152 1856.146973,248.282745 
z"/>
<path fill="#6A6A6A" opacity="1.000000" stroke="none" 
	d="
M1931.792236,142.112640 
	C1935.533936,141.947418 1934.904785,144.358261 1934.908203,146.249710 
	C1934.932251,159.911880 1934.921509,173.574112 1934.921875,187.236313 
	C1934.921875,188.866470 1934.921997,190.496628 1934.921997,192.931229 
	C1935.982544,192.094772 1936.488647,191.787643 1936.880859,191.372894 
	C1948.172974,179.429977 1966.330566,177.179306 1980.179565,185.979126 
	C1988.132202,191.032272 1991.955688,198.480804 1992.541382,207.644470 
	C1992.912842,213.456329 1992.893188,219.297348 1992.923706,225.125931 
	C1992.978638,235.609512 1992.939331,246.093567 1992.939331,257.024323 
	C1989.620850,257.024323 1986.746948,257.024323 1983.322510,257.024323 
	C1983.322510,254.120163 1983.338013,251.352859 1983.319824,248.585770 
	C1983.241821,236.757736 1983.287231,224.926971 1983.036133,213.102524 
	C1982.722412,198.331741 1973.915039,189.735748 1959.519287,189.828781 
	C1945.429077,189.919815 1935.095703,199.881378 1934.937012,213.859024 
	C1934.776367,228.006012 1934.901489,242.156235 1934.901489,256.857056 
	C1931.598389,256.857056 1928.584839,256.857056 1925.270752,256.857056 
	C1925.270752,218.748505 1925.270752,180.698273 1925.270752,142.108932 
	C1927.433472,142.108932 1929.384033,142.108932 1931.792236,142.112640 
z"/>
<path fill="#696969" opacity="1.000000" stroke="none" 
	d="
M2043.641357,258.284180 
	C2025.320557,256.158081 2013.293579,245.426941 2010.099243,228.672577 
	C2006.551636,210.065338 2013.806152,192.504700 2029.201538,184.859512 
	C2042.406250,178.302231 2055.660400,178.962036 2067.753662,188.083572 
	C2078.787842,196.406189 2083.689453,213.818451 2080.841064,223.106110 
	C2060.414795,223.106110 2039.837036,223.106110 2018.792236,223.106110 
	C2020.459351,233.445938 2024.186523,241.957733 2033.520020,246.539108 
	C2047.969360,253.631546 2060.914062,249.885315 2072.846680,239.645798 
	C2074.665039,241.610687 2076.332764,243.412857 2078.376221,245.620926 
	C2068.815674,255.522202 2057.312744,259.198669 2043.641357,258.284180 
M2065.769043,198.789612 
	C2057.952393,189.834732 2047.276855,186.989578 2036.462524,190.978928 
	C2026.958008,194.485168 2019.944946,204.482208 2020.042603,214.631882 
	C2021.142090,214.729584 2022.265503,214.915039 2023.389038,214.916351 
	C2039.514038,214.935196 2055.638916,214.929245 2073.462402,214.929245 
	C2070.741699,209.078217 2068.482178,204.219147 2065.769043,198.789612 
z"/>
<path fill="#686868" opacity="1.000000" stroke="none" 
	d="
M2186.819092,142.105331 
	C2187.847656,143.783722 2188.912109,145.445526 2188.921387,147.113327 
	C2189.035889,167.278839 2188.995117,187.445206 2188.994629,207.611328 
	C2188.994629,209.418701 2188.994629,211.226089 2188.994629,213.237793 
	C2195.407471,214.332367 2200.724609,214.403778 2205.499268,208.982971 
	C2212.204590,201.369934 2219.766846,194.512070 2226.953613,187.322205 
	C2233.346924,180.925903 2233.360352,180.914398 2243.326660,182.286224 
	C2231.374756,193.717407 2219.689209,204.893967 2207.714355,216.346954 
	C2220.582275,230.471100 2232.167236,243.186829 2244.648682,256.886902 
	C2238.267090,257.648621 2233.681396,258.467590 2229.679688,253.922318 
	C2221.863037,245.043854 2213.725830,236.448196 2205.760742,227.699402 
	C2200.141602,221.527267 2198.547119,221.009979 2189.080811,222.932968 
	C2189.080811,234.054443 2189.080811,245.296890 2189.080811,256.898956 
	C2185.831787,256.898956 2183.097900,256.898956 2179.945312,256.898956 
	C2179.945312,218.782089 2179.945312,180.728546 2179.945312,142.091522 
	C2182.148438,142.091522 2184.256348,142.091522 2186.819092,142.105331 
z"/>
<path fill="#6A6A6A" opacity="1.000000" stroke="none" 
	d="
M2117.072266,255.070541 
	C2102.218750,247.090851 2094.768311,234.985397 2095.156738,218.443604 
	C2095.515625,203.158112 2102.698486,191.688995 2116.128662,184.617935 
	C2131.114746,176.727615 2152.260986,180.724319 2161.589111,192.966568 
	C2159.873291,194.802078 2158.101318,196.697647 2155.922607,199.028458 
	C2147.433838,191.881500 2138.100098,187.759781 2126.970215,190.547623 
	C2120.309570,192.216019 2114.786377,195.681610 2110.702637,201.335922 
	C2102.288818,212.986069 2103.223389,230.260483 2112.881348,240.507217 
	C2123.700439,251.985764 2138.002197,252.150482 2156.533936,240.130463 
	C2158.045654,241.976212 2159.768311,244.079361 2161.433105,246.111740 
	C2153.145752,257.922852 2134.070557,261.703491 2117.072266,255.070541 
z"/>
<path fill="#202472" opacity="1.000000" stroke="none" 
	d="
M992.106689,153.359772 
	C985.829102,154.469528 985.668701,150.547043 985.922668,145.834946 
	C980.547668,145.834946 975.444092,145.718842 970.355286,145.940750 
	C969.426819,145.981262 967.937317,147.284348 967.765869,148.202393 
	C966.831116,153.207520 963.514343,153.839890 959.312561,153.422195 
	C957.382446,153.230331 955.417419,153.389542 952.611511,153.389542 
	C953.915955,150.211624 954.875000,147.840454 955.860352,145.480270 
	C960.775818,133.707794 965.681396,121.931152 970.625122,110.170563 
	C973.024292,104.463173 981.674133,100.996429 987.058411,103.645500 
	C987.797852,104.009338 988.468994,105.079887 988.646973,105.932739 
	C991.831238,121.189323 994.936584,136.462402 998.037415,151.736282 
	C998.095276,152.021561 997.893433,152.359558 997.636841,153.356094 
	C996.052429,153.356094 994.295715,153.356094 992.106689,153.359772 
M980.211914,135.969406 
	C981.113708,135.213745 982.881958,134.309738 982.781921,133.725601 
	C981.880188,128.458603 980.650940,123.247688 979.517700,118.020332 
	C979.166016,118.001045 978.814270,117.981766 978.462524,117.962479 
	C976.393677,123.736008 974.324829,129.509537 972.009521,135.970810 
	C975.044434,135.970810 977.169373,135.970810 980.211914,135.969406 
z"/>
<path fill="#212573" opacity="1.000000" stroke="none" 
	d="
M898.455078,104.068352 
	C892.359985,119.565147 885.906311,134.687119 879.839294,149.962677 
	C878.371338,153.658844 875.872803,153.306717 873.068787,153.317947 
	C864.977234,153.350357 864.988525,153.354263 863.015808,145.644958 
	C860.504395,135.830246 857.681763,126.082901 855.566589,116.184013 
	C854.433167,110.879532 851.692505,108.061279 846.626343,106.878929 
	C844.278198,106.330925 842.032471,105.343971 839.843506,103.737343 
	C847.214478,103.737343 854.622986,103.337105 861.929749,104.022079 
	C863.729858,104.190834 866.066956,107.671768 866.664307,110.011215 
	C868.840576,118.535507 870.384766,127.221169 872.478271,137.351120 
	C874.385498,132.693390 875.812134,129.281723 877.182129,125.847473 
	C879.518494,119.990501 882.050842,114.196938 884.051331,108.226135 
	C885.319763,104.440170 887.294373,102.809120 891.296631,103.430656 
	C893.572205,103.784042 895.922058,103.659348 898.455078,104.068352 
z"/>
<path fill="#686868" opacity="1.000000" stroke="none" 
	d="
M1615.944946,236.999664 
	C1615.944946,243.796234 1615.944946,250.092911 1615.944946,256.788696 
	C1612.531372,256.788696 1609.498779,256.788696 1606.147949,256.788696 
	C1606.147949,219.826843 1606.147949,182.978546 1606.147949,145.830109 
	C1609.404419,145.830109 1612.458862,145.830109 1615.944946,145.830109 
	C1615.944946,176.315994 1615.944946,206.407883 1615.944946,236.999664 
z"/>
<path fill="#212472" opacity="1.000000" stroke="none" 
	d="
M947.202637,102.896515 
	C950.016479,103.497711 952.412048,104.059753 955.252258,104.726112 
	C954.516479,108.108391 953.863953,111.107910 953.200012,114.160065 
	C949.028931,113.662964 945.240356,112.700180 941.537598,112.960091 
	C939.282349,113.118393 937.159363,115.161201 934.976990,116.357552 
	C936.337524,118.148727 937.435303,120.258812 939.124573,121.651077 
	C941.280029,123.427567 944.049866,124.438461 946.316833,126.103439 
	C955.420776,132.789810 954.819946,144.773438 944.950745,150.391739 
	C936.622620,155.132721 927.724182,154.842651 918.855042,152.026230 
	C917.959229,151.741806 916.966370,149.888336 917.032959,148.826584 
	C917.185974,146.385742 917.964478,143.984146 918.574036,141.175507 
	C921.125000,141.949387 923.384766,142.998093 925.731567,143.256805 
	C928.804138,143.595490 932.050781,143.781082 935.017822,143.117249 
	C936.806458,142.717056 939.188416,140.759247 939.481323,139.166229 
	C939.732422,137.801193 937.677429,135.584091 936.135193,134.409561 
	C933.244507,132.208054 929.741760,130.790253 926.930298,128.508438 
	C919.803711,122.724373 920.095093,113.125076 927.403015,107.561562 
	C933.149902,103.186539 939.747009,102.050446 947.202637,102.896515 
z"/>
<path fill="#6F6F6F" opacity="1.000000" stroke="none" 
	d="
M1520.032227,150.000000 
	C1520.032471,196.153610 1520.032715,241.807236 1520.031006,287.460846 
	C1520.031006,288.793549 1520.223389,290.178406 1519.915527,291.438660 
	C1519.741455,292.151245 1518.703003,293.157990 1518.101318,293.126434 
	C1517.428589,293.091095 1516.475586,292.133453 1516.246826,291.391479 
	C1515.916870,290.321472 1516.113770,289.084045 1516.113647,287.918091 
	C1516.111206,228.268478 1516.111084,168.618866 1516.116943,108.969254 
	C1516.116943,107.805687 1515.937500,106.549911 1516.317261,105.510834 
	C1516.572510,104.811943 1517.612915,104.165695 1518.407837,103.998283 
	C1518.798584,103.915985 1519.732666,104.901627 1519.884888,105.533180 
	C1520.151489,106.640190 1520.028198,107.846672 1520.028564,109.011505 
	C1520.034058,122.507668 1520.032104,136.003830 1520.032227,150.000000 
z"/>
<path fill="#202372" opacity="1.000000" stroke="none" 
	d="
M907.608765,103.483246 
	C910.983582,103.470703 913.931641,103.470703 917.634094,103.470703 
	C914.039978,120.369789 910.599121,136.548569 907.110229,152.953003 
	C902.989563,152.953003 899.106873,152.953003 894.673828,152.953003 
	C896.922119,142.253494 899.094299,131.891022 901.278870,121.531197 
	C902.273010,116.816933 903.141235,112.067459 904.388428,107.420357 
	C904.778564,105.966942 906.221191,104.796028 907.608765,103.483246 
z"/>
<path fill="#252661" opacity="1.000000" stroke="none" 
	d="
M1032.379395,294.731323 
	C1032.317017,278.842072 1032.807983,262.891846 1032.955322,246.938431 
	C1033.126099,228.443390 1032.929077,209.945145 1033.044556,191.449249 
	C1033.071167,187.167877 1031.802368,184.949493 1027.095459,184.954010 
	C956.941650,185.021423 886.787842,185.000687 816.634033,185.013046 
	C815.664551,185.013229 814.695007,185.171219 813.553711,185.270493 
	C813.140747,187.526779 812.764954,189.579880 812.083496,191.808731 
	C811.643921,189.532669 811.510071,187.080856 811.355835,184.256409 
	C885.681091,184.256409 959.553589,184.256409 1033.747803,184.256409 
	C1033.824829,185.723145 1033.966797,187.170609 1033.967285,188.618134 
	C1033.981201,222.283813 1033.996948,255.949524 1033.929932,289.615082 
	C1033.926636,291.300476 1033.180908,292.984375 1032.379395,294.731323 
z"/>
<path fill="#283DA8" opacity="1.000000" stroke="none" 
	d="
M417.202820,122.625732 
	C417.424713,118.835480 417.561401,114.676353 418.370422,110.652397 
	C418.969727,107.671425 417.698334,107.033417 415.335236,107.028893 
	C402.536713,107.004395 389.732269,106.793411 376.942688,107.131691 
	C372.390106,107.252106 373.187164,112.051636 372.031281,114.981781 
	C371.205719,117.074547 370.652802,119.274864 369.699280,121.597939 
	C370.579620,116.614716 370.163330,109.720833 373.364655,106.822006 
	C376.259949,104.200272 383.104919,105.822113 388.209869,105.783417 
	C398.951172,105.701988 409.693542,105.758675 420.980011,105.758675 
	C419.693146,111.720139 418.549622,117.017502 417.202820,122.625732 
z"/>
<path fill="#243AA7" opacity="1.000000" stroke="none" 
	d="
M333.628174,289.197815 
	C335.569580,289.267181 337.263031,289.925598 338.974640,289.976807 
	C351.452545,290.350128 363.934540,290.745300 376.413879,290.705322 
	C377.939697,290.700439 380.174866,288.432648 380.833984,286.730560 
	C382.350769,282.813751 383.099213,278.599396 384.459961,274.319214 
	C383.806519,279.016602 383.073700,283.961395 381.756805,288.745453 
	C381.386597,290.090363 379.316559,291.888428 378.000244,291.910187 
	C364.021271,292.140961 350.037048,292.056793 336.054291,292.054077 
	C334.368469,292.053772 332.421753,292.295044 333.628174,289.197815 
z"/>
<path fill="#2439A6" opacity="1.000000" stroke="none" 
	d="
M219.743530,108.747177 
	C211.432480,108.356354 202.897736,107.222603 194.348877,107.104042 
	C173.760208,106.818481 153.164932,107.023094 132.572388,106.989418 
	C129.635452,106.984619 126.816635,106.857460 128.972702,111.541946 
	C127.975090,110.758850 126.927185,109.594887 125.879280,108.430916 
	C127.262108,107.565872 128.629211,105.981087 130.030258,105.950500 
	C140.514816,105.721657 151.006104,105.783432 161.495270,105.785896 
	C176.479782,105.789413 191.468536,105.627495 206.446136,105.958672 
	C210.818237,106.055351 215.158539,107.590240 219.743530,108.747177 
z"/>
<path fill="#20374E" opacity="1.000000" stroke="none" 
	d="
M2272.565430,122.106552 
	C2272.946289,148.667160 2272.953857,175.461960 2272.927734,202.737701 
	C2272.594482,202.514008 2272.032227,201.809158 2272.032715,201.104752 
	C2272.053467,174.850098 2272.126465,148.595428 2272.565430,122.106552 
z"/>
<path fill="#2136A1" opacity="1.000000" stroke="none" 
	d="
M609.433105,264.980072 
	C609.948853,264.474457 610.820068,263.099762 611.690308,263.100433 
	C631.263000,263.115540 650.835693,263.281677 670.669128,263.741516 
	C652.320374,264.082825 633.710693,264.085144 615.101318,264.148376 
	C613.329590,264.154388 611.559143,264.541473 609.433105,264.980072 
z"/>
<path fill="#2B3DA0" opacity="1.000000" stroke="none" 
	d="
M549.989502,289.959717 
	C552.401245,290.110565 554.635376,290.905334 556.877197,290.927704 
	C569.110901,291.049561 581.347473,291.054718 593.580627,290.905823 
	C595.600403,290.881256 597.608398,289.896057 600.034302,289.327637 
	C599.195801,290.216400 597.954468,291.913483 596.692383,291.929108 
	C581.758728,292.113525 566.821899,292.070892 551.886658,291.969757 
	C551.192383,291.965088 550.505615,290.846741 549.989502,289.959717 
z"/>
<path fill="#273BA7" opacity="1.000000" stroke="none" 
	d="
M350.300293,109.816910 
	C349.087311,109.044891 348.152557,107.157944 347.200165,107.148979 
	C332.497375,107.010605 317.792267,107.111443 303.087891,107.187302 
	C302.625061,107.189682 302.163910,107.518173 301.301758,107.834137 
	C301.943115,107.245804 302.979309,105.892944 304.027130,105.883919 
	C319.734528,105.748466 335.443451,105.790161 351.740021,105.790161 
	C351.274109,107.297958 350.922241,108.436760 350.300293,109.816910 
z"/>
<path fill="#273A9F" opacity="1.000000" stroke="none" 
	d="
M222.879440,290.421814 
	C226.794113,290.313385 230.741898,290.893433 234.695084,290.932892 
	C247.516373,291.060791 260.339630,290.990479 273.638489,291.034271 
	C273.101562,291.393890 272.089355,291.992035 271.074829,291.996124 
	C256.154144,292.056244 241.233017,292.062775 226.312500,291.986420 
	C225.178131,291.980621 224.047424,291.254181 222.879440,290.421814 
z"/>
<path fill="#26399D" opacity="1.000000" stroke="none" 
	d="
M678.072021,291.602783 
	C690.072571,291.189758 702.381287,291.107239 714.689087,290.955719 
	C716.649292,290.931610 718.605591,290.597412 720.827698,290.058960 
	C720.213989,290.485962 719.341492,291.928345 718.457947,291.935150 
	C705.099487,292.037842 691.739441,291.952057 678.072021,291.602783 
z"/>
<path fill="#273A9F" opacity="1.000000" stroke="none" 
	d="
M219.988037,279.448517 
	C220.986160,282.291199 221.955322,285.529327 222.889160,289.209534 
	C221.888916,286.382416 220.924011,283.113190 219.988037,279.448517 
z"/>
<path fill="#273BA7" opacity="1.000000" stroke="none" 
	d="
M347.337708,116.871857 
	C347.821899,114.774139 348.567657,112.448235 349.680206,110.070824 
	C349.231110,112.227432 348.415192,114.435547 347.337708,116.871857 
z"/>
<path fill="#2B3DA0" opacity="1.000000" stroke="none" 
	d="
M600.623352,289.063843 
	C601.056885,287.012299 601.739990,284.717865 602.712402,282.225342 
	C602.292175,284.291840 601.582581,286.556396 600.623352,289.063843 
z"/>
<path fill="#273BA7" opacity="1.000000" stroke="none" 
	d="
M342.320038,128.883148 
	C342.859589,126.872627 343.659576,124.630577 344.751831,122.191071 
	C344.222870,124.212959 343.401672,126.432304 342.320038,128.883148 
z"/>
<path fill="#2B3DA0" opacity="1.000000" stroke="none" 
	d="
M552.770996,283.364319 
	C552.393555,285.010376 551.776917,286.914795 550.804626,288.997314 
	C551.143250,287.324524 551.837524,285.473602 552.770996,283.364319 
z"/>
<path fill="#273BA7" opacity="1.000000" stroke="none" 
	d="
M300.667633,108.120659 
	C300.467621,109.472488 299.994629,111.040062 299.216827,112.786087 
	C299.406219,111.421822 299.900421,109.879112 300.667633,108.120659 
z"/>
<path fill="#2B3DA0" opacity="1.000000" stroke="none" 
	d="
M604.479004,278.317383 
	C604.659729,276.861938 605.110962,275.145844 605.902100,273.268768 
	C605.744446,274.757446 605.247070,276.407104 604.479004,278.317383 
z"/>
<path fill="#273BA7" opacity="1.000000" stroke="none" 
	d="
M345.449310,121.346634 
	C345.606354,120.194962 346.042358,118.805954 346.792877,117.228577 
	C346.647675,118.396568 346.187958,119.752930 345.449310,121.346634 
z"/>
<path fill="#2439A6" opacity="1.000000" stroke="none" 
	d="
M222.221130,110.285950 
	C221.622070,110.263489 220.860519,109.993858 220.036163,109.376228 
	C220.668457,109.365074 221.363541,109.701927 222.221130,110.285950 
z"/>
<path fill="#2B3DA0" opacity="1.000000" stroke="none" 
	d="
M607.489685,270.078461 
	C607.467102,269.251770 607.684265,268.255646 608.219238,267.217712 
	C608.267822,268.086914 607.998657,268.997986 607.489685,270.078461 
z"/>
<path fill="#2B3DA0" opacity="1.000000" stroke="none" 
	d="
M606.439819,272.969910 
	C606.335754,272.258575 606.491394,271.330475 606.987915,270.264923 
	C607.119019,271.002686 606.909302,271.877930 606.439819,272.969910 
z"/>
<path fill="#2439A6" opacity="1.000000" stroke="none" 
	d="
M223.938477,111.671326 
	C223.485107,111.691612 222.919907,111.444176 222.352020,110.862747 
	C222.841751,110.820366 223.334198,111.111977 223.938477,111.671326 
z"/>
<path fill="#2B3DA0" opacity="1.000000" stroke="none" 
	d="
M603.441589,281.228058 
	C603.288879,280.774597 603.392273,280.092102 603.786011,279.206360 
	C603.950195,279.668427 603.823914,280.333740 603.441589,281.228058 
z"/>
<path fill="#273A9F" opacity="1.000000" stroke="none" 
	d="
M274.333923,290.952881 
	C274.219818,290.534271 274.362244,289.945892 274.770142,289.195984 
	C274.887207,289.617371 274.738831,290.200256 274.333923,290.952881 
z"/>
<path fill="#26399D" opacity="1.000000" stroke="none" 
	d="
M676.892090,289.364044 
	C677.234924,289.584808 677.538818,290.119690 677.734314,290.977783 
	C677.368347,290.760071 677.110779,290.219116 676.892090,289.364044 
z"/>
<path fill="#F1F2F9" opacity="1.000000" stroke="none" 
	d="
M947.561890,236.046448 
	C947.559326,234.897980 947.461975,234.217880 947.570190,233.572250 
	C948.036743,230.788452 948.336304,225.699020 949.106201,225.623535 
	C953.245972,225.217422 957.768677,225.315857 961.654907,226.678497 
	C965.545471,228.042648 965.007202,234.003937 961.380981,238.118637 
	C962.793152,242.143311 964.134033,245.964935 965.519714,249.914169 
	C960.121582,252.169281 959.787659,248.440338 959.264526,245.762421 
	C958.570435,242.209305 957.188782,239.904190 952.513245,240.165329 
	C952.393616,242.527863 952.519531,244.959442 952.054993,247.272461 
	C951.797913,248.552475 950.552551,249.633972 949.752625,250.804962 
	C949.025330,249.700104 947.758057,248.636047 947.670898,247.482788 
	C947.396362,243.850067 947.564636,240.183899 947.561890,236.046448 
M957.471252,228.969330 
	C955.709595,229.102173 953.947876,229.235001 952.186157,229.367844 
	C952.422791,231.747574 952.659424,234.127304 952.896118,236.507019 
	C954.896545,236.057343 957.302429,236.151779 958.804016,235.032745 
	C961.162292,233.275208 960.395386,230.995575 957.471252,228.969330 
z"/>
<path fill="#F0F1FA" opacity="1.000000" stroke="none" 
	d="
M922.731934,238.392700 
	C922.764526,234.486191 922.685303,230.986237 923.017090,227.525681 
	C923.103699,226.622101 924.468994,225.841095 925.246948,225.003754 
	C926.116638,225.923767 927.676392,226.800247 927.737671,227.771271 
	C928.018188,232.217316 927.342834,236.785736 928.116821,241.112320 
	C928.504028,243.276627 931.261353,245.016907 932.946655,246.948959 
	C934.605408,244.947021 937.383545,243.104874 937.696655,240.910889 
	C938.412598,235.895126 937.922974,230.707260 937.922974,225.589294 
	C938.352356,225.238403 938.781738,224.887497 939.211121,224.536606 
	C940.437439,225.614975 942.645752,226.631027 942.718811,227.782593 
	C943.022156,232.562500 943.156250,237.453476 942.459412,242.171783 
	C941.536316,248.422363 937.938721,251.145798 932.355774,250.950531 
	C926.932617,250.760864 923.778625,247.519073 922.982849,241.296173 
	C922.877625,240.473297 922.841553,239.641571 922.731934,238.392700 
z"/>
<path fill="#EBECF6" opacity="1.000000" stroke="none" 
	d="
M891.725586,250.455200 
	C880.684265,250.474319 882.522339,251.259048 882.264404,241.385437 
	C882.155945,237.232513 882.329895,233.068954 882.121826,228.922958 
	C881.967712,225.852829 883.167053,224.741196 886.178284,224.912979 
	C888.992249,225.073502 891.840271,224.705734 894.644409,224.930664 
	C895.657776,225.011932 896.587219,226.138504 897.554932,226.788055 
	C896.641113,227.511093 895.794495,228.721329 894.799744,228.858612 
	C892.534729,229.171204 890.196960,228.957245 888.013550,228.957245 
	C886.114075,235.078278 886.445923,235.471024 891.984802,235.481171 
	C893.608215,235.484146 895.230286,236.240341 896.852966,236.651306 
	C896.868225,237.327286 896.883484,238.003265 896.898743,238.679245 
	C893.831848,239.203720 890.765015,239.728195 887.374756,240.307968 
	C887.374756,241.876617 887.374756,243.609390 887.374756,246.157486 
	C889.526062,246.157486 891.645203,245.921921 893.678345,246.238266 
	C895.090698,246.458008 896.384949,247.436752 897.731995,248.076385 
	C896.374268,248.873230 895.041565,249.719055 893.642700,250.435608 
	C893.249268,250.637131 892.661499,250.459198 891.725586,250.455200 
z"/>
<path fill="#E8EAF4" opacity="1.000000" stroke="none" 
	d="
M979.545166,224.997711 
	C981.119446,225.762268 982.251282,226.526459 983.383118,227.290619 
	C982.225708,227.862671 981.114502,228.760193 979.900391,228.932495 
	C977.949463,229.209335 975.930481,229.006775 973.388611,229.006775 
	C973.282166,230.928070 973.186340,232.656525 973.088867,234.414734 
	C976.453491,235.047043 979.583557,235.590271 982.671082,236.315002 
	C982.880981,236.364288 982.770752,237.777542 982.825745,238.884369 
	C979.646851,239.033188 976.713806,239.170502 973.428345,239.324310 
	C973.428345,241.568726 973.428345,243.621246 973.428345,246.437347 
	C975.825195,246.437347 978.279724,246.223770 980.667725,246.529510 
	C981.822388,246.677353 982.852112,247.800766 983.938416,248.482483 
	C982.918518,249.235352 981.949890,250.536423 980.869080,250.637451 
	C977.733521,250.930542 974.523865,250.986084 971.405212,250.614868 
	C970.259521,250.478485 968.408203,248.916046 968.375366,247.953140 
	C968.122070,240.510818 968.235718,233.056000 968.235718,224.997314 
	C972.224915,224.997314 975.663818,224.997314 979.545166,224.997711 
z"/>
<path fill="#EEF0F8" opacity="1.000000" stroke="none" 
	d="
M869.532349,225.022797 
	C872.748718,225.283249 876.771912,223.293427 877.314697,228.930969 
	C874.741638,228.930969 872.622375,228.752594 870.557434,229.010040 
	C869.598816,229.129562 868.063477,230.032410 868.001282,230.694016 
	C867.902039,231.750320 868.522766,233.269882 869.361389,233.932709 
	C870.896240,235.145737 873.257935,235.493393 874.464905,236.897903 
	C876.267212,238.995056 878.809875,241.987442 878.389160,244.061768 
	C877.902893,246.458862 874.705627,248.491394 872.356201,250.239761 
	C871.325134,251.007080 869.332703,251.145493 868.036499,250.739822 
	C866.041199,250.115402 864.269409,248.776489 862.402832,247.740723 
	C864.198486,247.429169 866.050659,247.298325 867.775269,246.759354 
	C869.836365,246.115158 871.788391,245.121887 873.787659,244.279816 
	C872.539124,242.789215 871.463928,241.090683 869.993896,239.865891 
	C868.491943,238.614380 866.376038,238.082245 864.925049,236.790268 
	C860.385498,232.748062 862.210632,227.783005 869.532349,225.022797 
z"/>
<path fill="#F0F2F9" opacity="1.000000" stroke="none" 
	d="
M913.986572,246.808533 
	C915.962341,247.316025 917.550598,247.819885 919.138916,248.323746 
	C917.604492,249.196198 916.117371,250.706375 914.526978,250.824280 
	C909.273682,251.213791 904.494080,249.772766 901.776489,244.811554 
	C899.000244,239.743546 899.178284,234.471786 902.470032,229.708618 
	C905.826355,224.852036 911.029175,224.338516 916.336304,225.080124 
	C917.567871,225.252213 918.619873,226.709427 920.609863,228.228119 
	C906.795776,230.580566 905.051086,231.743042 905.016174,237.797409 
	C904.985840,243.058075 907.184326,245.365356 913.986572,246.808533 
z"/>
<path fill="#FAFCFE" opacity="1.000000" stroke="none" 
	d="
M629.034119,211.014984 
	C635.491882,193.188751 641.845947,175.739380 648.200012,158.290024 
	C648.559937,158.295410 648.919922,158.300812 649.279846,158.306213 
	C653.963257,180.672546 658.646729,203.038879 663.408081,225.777649 
	C650.159546,225.777649 637.396606,225.777649 623.754700,225.777649 
	C625.535400,220.828323 627.232971,216.110092 629.034119,211.014984 
z"/>
<path fill="#FDFEFE" opacity="1.000000" stroke="none" 
	d="
M2282.040771,217.774277 
	C2281.014893,210.420929 2279.266846,203.489197 2279.146240,196.529266 
	C2278.759277,174.217255 2279.036621,151.894348 2278.891357,129.576736 
	C2278.869141,126.173546 2279.790771,124.349281 2283.108154,122.901085 
	C2298.204834,116.310921 2313.604736,110.655052 2330.081787,109.119492 
	C2343.218506,107.895241 2356.510742,106.548630 2369.623779,107.266029 
	C2391.182373,108.445480 2411.926758,114.021515 2431.294189,123.841148 
	C2433.104736,124.759171 2434.808594,127.892998 2434.833252,130.018326 
	C2435.088867,151.832016 2435.629883,173.674271 2434.802734,195.459641 
	C2433.989746,216.873001 2425.707764,235.498367 2411.117188,251.562347 
	C2396.334473,267.838013 2378.660889,279.728149 2358.955566,288.925598 
	C2357.715576,289.504395 2355.761475,289.589111 2354.543701,289.027588 
	C2327.662842,276.634491 2304.557617,259.678284 2289.224365,233.699631 
	C2286.343506,228.818939 2284.425781,223.369766 2282.040771,217.774277 
M2356.993164,161.500000 
	C2356.993164,170.253464 2356.993164,179.006927 2356.993164,187.904770 
	C2366.535400,187.904770 2375.608154,188.800659 2384.422119,187.674500 
	C2395.069092,186.314163 2403.372803,175.212524 2404.055664,164.389542 
	C2404.959961,150.063400 2397.526123,138.746399 2386.598389,136.462509 
	C2377.098877,134.477158 2367.063477,135.055862 2356.993164,134.486099 
	C2356.993164,143.901855 2356.993164,152.200928 2356.993164,161.500000 
M2315.028564,180.283890 
	C2318.824951,187.518829 2325.346191,189.148392 2332.793213,189.025146 
	C2339.861328,188.908188 2347.237793,184.410263 2348.728271,178.363983 
	C2349.543213,175.057510 2349.779297,171.145020 2348.771973,167.985641 
	C2347.804443,164.951965 2344.895020,162.537613 2342.786133,159.781891 
	C2348.160156,154.393082 2349.579346,151.201996 2348.598145,146.636520 
	C2346.609863,137.385483 2341.207275,134.941879 2333.440674,134.070877 
	C2325.524902,133.183182 2317.326660,138.470078 2315.335938,145.423721 
	C2314.893066,146.970322 2315.923584,150.465729 2316.387207,150.485779 
	C2318.630127,150.582687 2321.148682,150.241531 2323.103760,149.190048 
	C2324.681885,148.341049 2325.299805,145.523605 2326.872559,144.887848 
	C2329.569092,143.797867 2332.946777,142.758423 2335.546875,143.476822 
	C2338.831787,144.384399 2339.488525,147.933563 2338.998779,151.342957 
	C2338.507080,154.766327 2336.407959,156.397934 2333.182129,157.005600 
	C2331.468018,157.328476 2329.790771,157.846497 2328.348633,158.212494 
	C2327.199951,163.086517 2328.214355,165.457794 2333.597168,165.150528 
	C2337.864258,164.906967 2340.090088,167.726898 2339.986328,172.108856 
	C2339.895264,175.956406 2338.031006,178.542572 2334.479736,179.992065 
	C2330.492432,181.619461 2327.344971,180.416199 2324.643066,177.301056 
	C2319.582520,171.466385 2318.906982,171.332962 2312.654053,174.893967 
	C2313.399902,176.420517 2314.159912,177.976547 2315.028564,180.283890 
M2375.894043,211.621857 
	C2375.894043,215.600891 2375.894043,219.579926 2375.894043,223.513062 
	C2382.879150,225.719345 2378.857422,218.811096 2381.577637,217.424393 
	C2385.066650,218.744919 2384.424316,226.554825 2391.228516,223.394897 
	C2389.854980,220.893112 2388.474121,218.377960 2387.093262,215.862808 
	C2387.541504,215.894196 2387.989502,215.925583 2388.437744,215.956970 
	C2388.667480,213.188019 2389.986328,209.848114 2388.897217,207.770767 
	C2386.731201,203.640488 2381.951416,203.562408 2377.967285,204.436584 
	C2376.874023,204.676453 2376.565186,208.492096 2375.894043,211.621857 
M2368.030273,209.823013 
	C2368.016602,211.984573 2368.280029,214.197937 2367.889160,216.288834 
	C2367.642090,217.610001 2366.416992,218.748230 2365.630615,219.968567 
	C2364.352295,219.014038 2362.237061,218.255875 2361.958008,217.066956 
	C2361.217285,213.907822 2361.444092,210.534012 2360.912354,207.307190 
	C2360.719727,206.138672 2359.464600,205.145279 2358.694336,204.071960 
	C2357.791748,205.023071 2356.098877,205.993668 2356.121826,206.921997 
	C2356.226074,211.145187 2356.210938,215.550690 2357.481445,219.489700 
	C2358.113037,221.446411 2361.231445,223.174911 2363.564941,223.879852 
	C2367.496338,225.067413 2371.183105,223.378677 2372.268066,219.416580 
	C2373.653809,214.355667 2373.715576,209.027222 2372.038574,204.008133 
	C2371.409668,203.896790 2370.780518,203.785431 2370.151611,203.674088 
	C2369.454102,205.427063 2368.756592,207.180054 2368.030273,209.823013 
M2329.631592,204.244827 
	C2327.147461,203.915070 2324.890869,203.755402 2324.958008,207.394882 
	C2325.058350,212.826920 2324.984131,218.262161 2324.984131,224.026672 
	C2328.442871,224.026672 2331.416016,224.206192 2334.349121,223.941269 
	C2335.581299,223.829987 2336.728760,222.778519 2337.914551,222.154449 
	C2336.823975,221.430984 2335.765869,220.648468 2334.624268,220.017151 
	C2334.241455,219.805496 2333.563965,220.143539 2333.162354,219.944992 
	C2332.101074,219.420227 2331.117188,218.739365 2330.102295,218.120712 
	C2331.027344,217.425018 2331.872559,216.552124 2332.902344,216.089325 
	C2333.729980,215.717300 2334.781006,215.841660 2335.733154,215.745667 
	C2335.947510,215.229721 2336.161865,214.713760 2336.376221,214.197815 
	C2334.395752,213.140045 2332.415283,212.082275 2329.616211,210.587402 
	C2330.729736,209.859390 2331.749023,209.068085 2332.876465,208.485458 
	C2334.536621,207.627502 2336.273438,206.918457 2337.977783,206.145950 
	C2335.997314,205.516937 2334.024658,204.861542 2332.030518,204.278748 
	C2331.571289,204.144485 2331.039062,204.259140 2329.631592,204.244827 
M2392.985107,216.466125 
	C2392.985107,218.894073 2392.985107,221.322037 2392.985107,224.030731 
	C2396.174072,224.030731 2398.828125,224.255676 2401.418457,223.946320 
	C2402.971924,223.760727 2404.426270,222.740723 2405.925049,222.095795 
	C2404.485107,221.389511 2403.066162,220.147369 2401.601074,220.090668 
	C2398.724854,219.979355 2397.077637,219.516861 2398.037109,217.304916 
	C2400.590820,215.976135 2402.276367,215.099167 2403.961670,214.222092 
	C2402.079346,213.088425 2400.196777,211.954773 2396.881592,209.958252 
	C2399.540771,209.277206 2401.398438,208.973602 2403.110352,208.300125 
	C2404.179688,207.879395 2405.029785,206.900909 2405.978271,206.172592 
	C2405.010498,205.483688 2404.108643,204.325943 2403.064453,204.179306 
	C2393.834473,202.882980 2392.985596,203.678574 2392.985596,213.007019 
	C2392.985596,213.836304 2392.985840,214.665573 2392.985107,216.466125 
M2349.316895,219.969879 
	C2345.505615,220.261215 2344.034180,218.427231 2343.963135,214.688736 
	C2343.794678,205.811600 2350.687500,209.623672 2355.002441,208.819443 
	C2354.984131,204.012955 2351.268799,204.430435 2348.741211,204.097488 
	C2344.794678,203.577621 2339.942383,207.317169 2339.058350,210.919876 
	C2337.781982,216.122620 2339.446533,220.965347 2343.221924,223.033127 
	C2347.116455,225.166107 2351.754639,224.324951 2355.906494,219.857101 
	C2353.340332,219.857101 2351.733154,219.857101 2349.316895,219.969879 
M2310.039551,211.289032 
	C2312.891357,213.776718 2315.742920,216.264404 2319.321533,219.386169 
	C2315.658447,219.625504 2312.811035,219.811539 2308.727539,220.078323 
	C2314.233398,225.007034 2318.851074,225.319901 2321.600098,221.787445 
	C2322.497314,220.634262 2323.416748,218.213516 2322.855225,217.438705 
	C2320.751221,214.536224 2318.038818,212.074875 2315.417236,209.303299 
	C2317.710205,208.900497 2320.424316,208.423676 2324.121826,207.774094 
	C2317.294434,202.005524 2312.828369,203.302521 2310.039551,211.289032 
z"/>
<path fill="#FEFEFE" opacity="1.000000" stroke="none" 
	d="
M1677.994263,155.049744 
	C1689.149536,154.991913 1699.910156,154.584839 1709.881836,159.207352 
	C1729.433105,168.270538 1738.629639,185.981125 1735.708130,208.398758 
	C1732.847534,230.347610 1716.422363,245.941528 1694.197021,246.978058 
	C1681.595703,247.565750 1668.944458,247.084183 1655.938965,247.084183 
	C1655.938965,216.435638 1655.938965,186.052582 1655.938965,155.048965 
	C1663.293213,155.048965 1670.394409,155.048965 1677.994263,155.049744 
z"/>
<path fill="#FCFCFC" opacity="1.000000" stroke="none" 
	d="
M2065.995850,199.074829 
	C2068.482178,204.219147 2070.741699,209.078217 2073.462402,214.929245 
	C2055.638916,214.929245 2039.514038,214.935196 2023.389038,214.916351 
	C2022.265503,214.915039 2021.142090,214.729584 2020.042603,214.631882 
	C2019.944946,204.482208 2026.958008,194.485168 2036.462524,190.978928 
	C2047.276855,186.989578 2057.952393,189.834732 2065.995850,199.074829 
z"/>
<path fill="#F0F2FA" opacity="1.000000" stroke="none" 
	d="
M979.753052,135.970108 
	C977.169373,135.970810 975.044434,135.970810 972.009521,135.970810 
	C974.324829,129.509537 976.393677,123.736008 978.462524,117.962479 
	C978.814270,117.981766 979.166016,118.001045 979.517700,118.020332 
	C980.650940,123.247688 981.880188,128.458603 982.781921,133.725601 
	C982.881958,134.309738 981.113708,135.213745 979.753052,135.970108 
z"/>
<path fill="#2E3073" opacity="1.000000" stroke="none" 
	d="
M957.837219,229.114944 
	C960.395386,230.995575 961.162292,233.275208 958.804016,235.032745 
	C957.302429,236.151779 954.896545,236.057343 952.896118,236.507019 
	C952.659424,234.127304 952.422791,231.747574 952.186157,229.367828 
	C953.947876,229.235001 955.709595,229.102173 957.837219,229.114944 
z"/>
<path fill="#0E3D63" opacity="1.000000" stroke="none" 
	d="
M2356.993164,161.000000 
	C2356.993164,152.200928 2356.993164,143.901855 2356.993164,134.486099 
	C2367.063477,135.055862 2377.098877,134.477158 2386.598389,136.462509 
	C2397.526123,138.746399 2404.959961,150.063400 2404.055664,164.389542 
	C2403.372803,175.212524 2395.069092,186.314163 2384.422119,187.674500 
	C2375.608154,188.800659 2366.535400,187.904770 2356.993164,187.904770 
	C2356.993164,179.006927 2356.993164,170.253464 2356.993164,161.000000 
M2377.966797,143.137817 
	C2375.470703,143.095520 2372.908447,142.701096 2370.504639,143.151703 
	C2369.201172,143.396072 2367.189941,145.056213 2367.163818,146.118149 
	C2366.913330,156.439926 2366.958252,166.771118 2367.112793,177.096756 
	C2367.127197,178.056915 2368.445557,179.786652 2369.207275,179.814163 
	C2373.158203,179.956863 2377.252930,180.238510 2381.059326,179.396317 
	C2388.124756,177.833069 2394.125000,172.513046 2393.041748,158.179840 
	C2392.446045,150.297012 2387.713623,145.189270 2377.966797,143.137817 
z"/>
<path fill="#0F3D62" opacity="1.000000" stroke="none" 
	d="
M2314.974121,179.908234 
	C2314.159912,177.976547 2313.399902,176.420517 2312.654053,174.893967 
	C2318.906982,171.332962 2319.582520,171.466385 2324.643066,177.301056 
	C2327.344971,180.416199 2330.492432,181.619461 2334.479736,179.992065 
	C2338.031006,178.542572 2339.895264,175.956406 2339.986328,172.108856 
	C2340.090088,167.726898 2337.864258,164.906967 2333.597168,165.150528 
	C2328.214355,165.457794 2327.199951,163.086517 2328.348633,158.212494 
	C2329.790771,157.846497 2331.468018,157.328476 2333.182129,157.005600 
	C2336.407959,156.397934 2338.507080,154.766327 2338.998779,151.342957 
	C2339.488525,147.933563 2338.831787,144.384399 2335.546875,143.476822 
	C2332.946777,142.758423 2329.569092,143.797867 2326.872559,144.887848 
	C2325.299805,145.523605 2324.681885,148.341049 2323.103760,149.190048 
	C2321.148682,150.241531 2318.630127,150.582687 2316.387207,150.485779 
	C2315.923584,150.465729 2314.893066,146.970322 2315.335938,145.423721 
	C2317.326660,138.470078 2325.524902,133.183182 2333.440674,134.070877 
	C2341.207275,134.941879 2346.609863,137.385483 2348.598145,146.636520 
	C2349.579346,151.201996 2348.160156,154.393082 2342.786133,159.781891 
	C2344.895020,162.537613 2347.804443,164.951965 2348.771973,167.985641 
	C2349.779297,171.145020 2349.543213,175.057510 2348.728271,178.363983 
	C2347.237793,184.410263 2339.861328,188.908188 2332.793213,189.025146 
	C2325.346191,189.148392 2318.824951,187.518829 2314.974121,179.908234 
z"/>
<path fill="#133E5F" opacity="1.000000" stroke="none" 
	d="
M2375.895020,211.144379 
	C2376.565186,208.492096 2376.874023,204.676453 2377.967285,204.436584 
	C2381.951416,203.562408 2386.731201,203.640488 2388.897217,207.770767 
	C2389.986328,209.848114 2388.667480,213.188019 2388.437744,215.956970 
	C2387.989502,215.925583 2387.541504,215.894196 2387.093262,215.862808 
	C2388.474121,218.377960 2389.854980,220.893112 2391.228516,223.394897 
	C2384.424316,226.554825 2385.066650,218.744919 2381.577637,217.424393 
	C2378.857422,218.811096 2382.879150,225.719345 2375.894043,223.513062 
	C2375.894043,219.579926 2375.894043,215.600891 2375.895020,211.144379 
z"/>
<path fill="#133D5E" opacity="1.000000" stroke="none" 
	d="
M2368.044678,209.378021 
	C2368.756592,207.180054 2369.454102,205.427063 2370.151611,203.674088 
	C2370.780518,203.785431 2371.409668,203.896790 2372.038574,204.008133 
	C2373.715576,209.027222 2373.653809,214.355667 2372.268066,219.416580 
	C2371.183105,223.378677 2367.496338,225.067413 2363.564941,223.879852 
	C2361.231445,223.174911 2358.113037,221.446411 2357.481445,219.489700 
	C2356.210938,215.550690 2356.226074,211.145187 2356.121826,206.921997 
	C2356.098877,205.993668 2357.791748,205.023071 2358.694336,204.071960 
	C2359.464600,205.145279 2360.719727,206.138672 2360.912354,207.307190 
	C2361.444092,210.534012 2361.217285,213.907822 2361.958008,217.066956 
	C2362.237061,218.255875 2364.352295,219.014038 2365.630615,219.968536 
	C2366.416992,218.748230 2367.642090,217.610001 2367.889160,216.288834 
	C2368.280029,214.197937 2368.016602,211.984573 2368.044678,209.378021 
z"/>
<path fill="#173F61" opacity="1.000000" stroke="none" 
	d="
M2330.085938,204.252045 
	C2331.039062,204.259140 2331.571289,204.144485 2332.030518,204.278748 
	C2334.024658,204.861542 2335.997314,205.516937 2337.977783,206.145935 
	C2336.273438,206.918457 2334.536621,207.627502 2332.876465,208.485458 
	C2331.749023,209.068085 2330.729736,209.859390 2329.616211,210.587402 
	C2332.415283,212.082275 2334.395752,213.140045 2336.376221,214.197815 
	C2336.161865,214.713760 2335.947510,215.229721 2335.733154,215.745667 
	C2334.781006,215.841660 2333.729980,215.717300 2332.902344,216.089325 
	C2331.872559,216.552124 2331.027344,217.425018 2330.102295,218.120697 
	C2331.117188,218.739365 2332.101074,219.420227 2333.162354,219.944992 
	C2333.563965,220.143539 2334.241455,219.805496 2334.624268,220.017151 
	C2335.765869,220.648468 2336.823975,221.430984 2337.914551,222.154449 
	C2336.728760,222.778519 2335.581299,223.829987 2334.349121,223.941269 
	C2331.416016,224.206192 2328.442871,224.026672 2324.984131,224.026672 
	C2324.984131,218.262161 2325.058350,212.826920 2324.958008,207.394882 
	C2324.890869,203.755402 2327.147461,203.915070 2330.085938,204.252045 
z"/>
<path fill="#174061" opacity="1.000000" stroke="none" 
	d="
M2392.985352,215.980499 
	C2392.985840,214.665573 2392.985596,213.836304 2392.985596,213.007019 
	C2392.985596,203.678574 2393.834473,202.882980 2403.064453,204.179306 
	C2404.108643,204.325943 2405.010498,205.483688 2405.978271,206.172638 
	C2405.029785,206.900909 2404.179688,207.879395 2403.110352,208.300125 
	C2401.398438,208.973602 2399.540771,209.277206 2396.881592,209.958252 
	C2400.196777,211.954773 2402.079346,213.088425 2403.961670,214.222137 
	C2402.276367,215.099167 2400.590820,215.976135 2398.037109,217.304916 
	C2397.077637,219.516861 2398.724854,219.979355 2401.601074,220.090668 
	C2403.066162,220.147369 2404.485107,221.389511 2405.925049,222.095764 
	C2404.426270,222.740723 2402.971924,223.760727 2401.418457,223.946320 
	C2398.828125,224.255676 2396.174072,224.030731 2392.985107,224.030731 
	C2392.985107,221.322037 2392.985107,218.894073 2392.985352,215.980499 
z"/>
<path fill="#143D5E" opacity="1.000000" stroke="none" 
	d="
M2349.721436,219.913483 
	C2351.733154,219.857101 2353.340332,219.857101 2355.906494,219.857101 
	C2351.754639,224.324951 2347.116455,225.166107 2343.221924,223.033127 
	C2339.446533,220.965347 2337.781982,216.122620 2339.058350,210.919876 
	C2339.942383,207.317169 2344.794678,203.577621 2348.741211,204.097488 
	C2351.268799,204.430435 2354.984131,204.012955 2355.002441,208.819443 
	C2350.687500,209.623672 2343.794678,205.811600 2343.963135,214.688736 
	C2344.034180,218.427231 2345.505615,220.261215 2349.721436,219.913483 
z"/>
<path fill="#133C5D" opacity="1.000000" stroke="none" 
	d="
M2310.015137,210.904480 
	C2312.828369,203.302521 2317.294434,202.005524 2324.121826,207.774094 
	C2320.424316,208.423676 2317.710205,208.900497 2315.417236,209.303299 
	C2318.038818,212.074875 2320.751221,214.536224 2322.855225,217.438705 
	C2323.416748,218.213516 2322.497314,220.634262 2321.600098,221.787445 
	C2318.851074,225.319901 2314.233398,225.007034 2308.727539,220.078323 
	C2312.811035,219.811539 2315.658447,219.625504 2319.321533,219.386169 
	C2315.742920,216.264404 2312.891357,213.776718 2310.015137,210.904480 
z"/>
<path fill="#FDFFFF" opacity="1.000000" stroke="none" 
	d="
M2378.360352,143.332016 
	C2387.713623,145.189270 2392.446045,150.297012 2393.041748,158.179840 
	C2394.125000,172.513046 2388.124756,177.833069 2381.059326,179.396317 
	C2377.252930,180.238510 2373.158203,179.956863 2369.207275,179.814163 
	C2368.445557,179.786652 2367.127197,178.056915 2367.112793,177.096756 
	C2366.958252,166.771118 2366.913330,156.439926 2367.163818,146.118149 
	C2367.189941,145.056213 2369.201172,143.396072 2370.504639,143.151703 
	C2372.908447,142.701096 2375.470703,143.095520 2378.360352,143.332016 
z"/>
</svg>