<svg width="512" height="512" viewBox="0 0 512 512" fill="none" xmlns="http://www.w3.org/2000/svg">
  <rect width="512" height="512" fill="white"/>
  <g transform="translate(106, 17) scale(0.6)">
    <path d="M125 130C125 130 125 110 140 95C155 80 175 80 175 80L175 230C175 230 160 250 140 250C120 250 125 230 125 230L125 130Z" fill="black"/>
    <path d="M175 230L250 230L250 510C250 510 240 530 220 530C200 530 190 510 190 510L190 250C190 250 175 250 175 230Z" fill="black"/>
    <ellipse cx="256" cy="150" rx="120" ry="130" fill="black"/>
    <path d="M180 110C180 90 190 70 210 60C230 50 250 50 270 50C290 50 310 50 330 60C350 70 360 90 360 110C360 130 350 150 330 160C310 170 290 180 270 190C250 200 230 210 210 210C190 210 180 190 180 170C180 150 180 130 180 110Z" fill="black"/>
    <ellipse cx="230" cy="165" rx="8" ry="12" fill="white" opacity="0.3"/>
    <path d="M160 145C160 145 150 130 140 125C130 120 120 125 120 135L120 155C120 165 130 170 140 165C150 160 160 155 160 145Z" fill="black"/>
    <path d="M352 145C352 145 362 130 372 125C382 120 392 125 392 135L392 155C392 165 382 170 372 165C362 160 352 155 352 145Z" fill="black"/>
  </g>
</svg>

